<?xml version="1.0" standalone="no"?>
<!DOCTYPE svg PUBLIC "-//W3C//DTD SVG 20010904//EN"
 "http://www.w3.org/TR/2001/REC-SVG-20010904/DTD/svg10.dtd">
<svg version="1.0" xmlns="http://www.w3.org/2000/svg"
 width="782.000000pt" height="782.000000pt" viewBox="0 0 782.000000 782.000000"
 preserveAspectRatio="xMidYMid meet">
<metadata>
Created by potrace 1.14, written by Peter Selinger 2001-2017
</metadata>
<g transform="translate(0.000000,782.000000) scale(0.100000,-0.100000)"
fill="#000000" stroke="none">
<path d="M1708 7490 c-149 -45 -208 -223 -110 -332 50 -56 102 -78 182 -78 52
0 75 6 115 28 59 33 104 93 112 151 3 24 12 45 19 48 26 10 202 -19 289 -48
189 -63 361 -168 508 -308 108 -104 174 -192 226 -302 52 -109 58 -135 34
-143 -10 -3 -267 -73 -571 -156 -304 -82 -570 -157 -590 -166 -45 -18 -102
-56 -102 -67 0 -5 12 -24 27 -43 29 -39 118 -85 301 -154 64 -25 111 -48 109
-54 -3 -6 -10 -37 -17 -68 l-13 -58 -43 39 c-125 116 -274 197 -469 256 -137
41 -397 96 -406 87 -4 -4 -16 -81 -28 -172 -88 -676 -80 -874 46 -1173 l46
-109 -36 -116 c-47 -150 -82 -296 -108 -447 -26 -151 -36 -453 -20 -578 28
-209 106 -414 209 -550 29 -37 52 -70 52 -72 0 -6 -113 23 -189 50 -97 33
-125 32 -161 -3 l-28 -28 -53 18 c-30 10 -79 21 -110 25 l-56 6 -47 96 c-45
91 -237 459 -520 996 -70 132 -134 246 -143 253 -26 19 -80 15 -103 -8 -40
-40 -31 -64 215 -530 130 -245 296 -564 369 -710 l133 -265 6 -95 c10 -159 59
-309 148 -453 l30 -49 -21 -100 c-11 -56 -20 -108 -20 -117 0 -16 135 -108
286 -194 195 -112 429 -208 594 -243 l83 -18 -7 -181 c-12 -302 -28 -447 -72
-630 -13 -55 -24 -108 -24 -118 0 -10 24 -33 60 -56 81 -52 179 -75 488 -111
166 -19 275 -37 331 -55 221 -67 234 -68 734 -72 424 -4 470 -3 610 17 328 46
621 116 985 236 372 123 561 238 626 384 24 52 27 72 24 134 l-3 73 135 6
c233 10 437 81 605 211 47 37 64 44 120 50 119 12 252 52 306 92 85 62 132
147 145 264 6 53 10 62 38 79 45 29 93 81 110 121 14 36 15 36 104 47 160 20
208 63 200 180 -2 34 -1 63 2 63 4 0 15 15 25 33 13 25 17 49 13 98 l-4 65 59
44 c118 89 241 264 272 389 25 98 17 436 -14 546 -49 180 -169 367 -304 475
-165 132 -455 232 -672 231 -169 0 -413 -59 -575 -139 -88 -43 -215 -136 -263
-193 l-34 -39 -6 142 c-9 213 -52 381 -146 569 l-40 79 20 112 c10 62 39 212
64 333 65 316 61 451 -20 683 -31 90 -109 278 -151 365 l-18 37 -155 0 c-411
-1 -716 -103 -1095 -368 -65 -45 -122 -80 -127 -77 -5 4 -9 14 -9 24 0 27 -38
164 -59 213 l-19 44 102 33 c152 50 255 93 321 136 l60 38 -40 35 c-22 19 -58
43 -80 53 -22 9 -231 72 -465 139 -234 66 -488 141 -565 165 -138 43 -142 44
-188 30 -44 -13 -48 -13 -54 3 -3 9 -20 54 -38 100 -121 302 -479 611 -841
725 -114 36 -195 49 -309 49 -79 0 -104 3 -125 17 -54 38 -145 51 -212 31z
m153 -139 c40 -40 39 -83 -2 -122 -64 -60 -189 -24 -189 54 1 58 48 96 118 97
35 0 49 -6 73 -29z m3646 -1413 c6 -7 31 -62 56 -123 105 -253 137 -400 119
-550 -11 -82 -88 -464 -96 -473 -2 -2 -34 15 -71 38 -77 47 -99 46 -121 -6
-24 -58 -18 -78 54 -167 201 -252 311 -590 281 -868 -72 -668 -454 -1090
-1132 -1249 -192 -46 -341 -62 -622 -67 -388 -8 -645 15 -1165 102 -146 24
-317 51 -380 60 -343 47 -592 151 -772 323 -173 166 -262 364 -289 648 -26
270 43 681 172 1024 l40 105 -52 45 c-56 48 -93 116 -124 225 -23 83 -31 329
-16 507 16 179 45 416 54 424 9 9 172 -32 292 -73 118 -41 206 -87 289 -151
70 -56 206 -216 206 -243 0 -88 151 -187 460 -304 l125 -47 225 5 c247 6 423
23 660 63 170 28 383 79 473 114 l57 21 0 51 c0 49 2 52 73 122 180 180 539
364 816 421 152 31 372 44 388 23z m1500 -1972 c332 -91 522 -274 600 -575 30
-120 40 -277 24 -392 -10 -67 -21 -102 -53 -158 -48 -87 -156 -204 -230 -248
-48 -29 -58 -32 -88 -23 -19 6 -56 10 -82 10 -31 0 -48 4 -48 12 0 7 18 57 39
112 84 214 107 374 65 446 -59 102 -214 116 -332 31 l-41 -30 -47 21 c-71 31
-130 28 -206 -10 -62 -32 -63 -32 -112 -17 -135 41 -245 -9 -261 -119 -14 -91
56 -261 171 -415 30 -40 52 -77 47 -81 -4 -4 -31 -14 -60 -23 -46 -15 -56 -15
-93 -2 -146 52 -280 167 -342 296 -124 255 -122 577 4 798 65 113 199 231 332
291 235 107 498 135 713 76z m144 -832 c29 -26 33 -78 15 -173 -20 -101 -115
-361 -136 -372 -8 -4 -91 -12 -185 -18 -93 -7 -197 -14 -231 -18 l-61 -5 -67
88 c-84 111 -165 270 -173 341 -5 46 -3 54 21 78 25 25 33 27 86 23 33 -2 62
-7 65 -10 4 -3 -3 -24 -14 -47 -68 -133 48 -293 159 -219 84 56 95 185 21 252
-12 11 -21 23 -21 27 0 4 20 15 45 25 43 16 47 16 90 -1 44 -16 45 -18 32 -39
-8 -11 -19 -38 -26 -58 -22 -68 23 -171 87 -197 25 -10 35 -10 60 3 86 44 107
191 37 256 -14 13 -25 27 -25 31 0 4 24 19 53 34 42 22 61 25 101 21 27 -3 57
-13 67 -22z m-1396 -219 c14 -49 46 -132 71 -183 71 -145 200 -270 350 -339
54 -24 54 -25 54 -70 0 -53 24 -108 55 -129 16 -11 24 -28 28 -65 13 -111 64
-149 198 -149 82 0 86 -1 100 -26 22 -43 96 -101 145 -115 l46 -14 -7 -45 c-4
-25 -13 -56 -20 -71 -14 -26 -89 -99 -103 -99 -4 -1 -32 -7 -62 -14 l-55 -13
0 71 c0 59 -5 79 -27 117 -109 185 -387 240 -509 101 -73 -83 -88 -179 -43
-270 30 -60 78 -102 164 -140 l61 -28 -78 -37 c-131 -61 -210 -79 -374 -84
l-145 -5 -13 58 c-21 95 -105 340 -156 458 -57 128 -151 287 -223 378 -60 76
-184 196 -242 234 l-40 27 122 59 c68 32 161 84 207 115 159 106 365 329 435
472 l21 43 7 -73 c4 -41 19 -114 33 -164z m1165 46 c0 -16 -9 -39 -19 -52 -20
-24 -20 -24 -35 -4 -26 32 -28 60 -11 101 l16 39 25 -28 c13 -16 24 -41 24
-56z m-323 37 c29 -27 31 -86 4 -119 -18 -22 -19 -22 -45 -6 -21 14 -26 25
-26 60 0 38 21 87 37 87 4 0 17 -10 30 -22z m-5592 -199 c63 -19 66 -21 61
-47 -3 -15 -17 -94 -32 -177 -14 -82 -27 -151 -29 -153 -6 -6 -55 144 -65 197
-10 52 -14 201 -6 201 2 0 34 -9 71 -21z m353 -35 c51 -13 158 -35 237 -49
122 -22 157 -32 230 -70 47 -24 146 -63 220 -87 74 -24 135 -48 135 -54 0 -7
-18 -74 -40 -150 -54 -186 -59 -230 -31 -287 21 -43 51 -66 113 -84 l27 -8
-45 -69 c-56 -88 -70 -137 -52 -182 13 -34 342 -374 361 -374 10 0 4 -747 -6
-757 -6 -6 -186 12 -337 33 -139 20 -213 41 -206 59 34 89 64 363 78 714 l12
294 -29 23 c-36 29 -45 29 -92 4 -21 -11 -50 -20 -64 -20 -41 0 -282 86 -406
145 -138 66 -352 191 -360 211 -3 8 11 99 31 202 30 155 96 528 96 541 0 2 8
0 18 -4 9 -4 59 -18 110 -31z m1108 -295 l77 -12 -6 -146 c-4 -80 -10 -282
-14 -449 l-6 -303 -104 103 c-56 56 -103 106 -103 110 0 5 26 47 57 93 47 71
57 95 61 138 4 49 2 56 -27 84 -17 17 -44 34 -61 37 -16 3 -43 9 -60 12 -17 3
-30 12 -30 20 0 12 67 256 85 312 5 15 33 15 131 1z m2314 -110 c231 -126 410
-356 544 -701 87 -222 166 -549 150 -621 -4 -18 -28 -53 -60 -84 -67 -67 -212
-139 -429 -213 -589 -201 -1046 -283 -1565 -284 -289 0 -432 15 -640 67 l-125
32 1 38 c0 20 1 213 2 427 2 367 3 390 20 390 10 0 55 27 100 60 45 33 84 60
87 60 2 0 35 -21 72 -46 193 -132 431 -210 698 -230 76 -5 103 -3 169 15 346
95 608 420 594 736 -7 139 -54 206 -191 275 -33 16 -53 31 -46 34 8 2 70 9
139 15 69 6 186 24 260 40 74 16 137 29 140 30 3 0 39 -18 80 -40z m-1430 -15
c354 -43 674 -126 826 -213 69 -40 89 -81 81 -170 -23 -281 -315 -561 -583
-561 -215 0 -458 74 -636 192 -48 32 -90 63 -93 68 -3 4 1 39 9 77 8 38 27
154 41 258 23 166 40 268 60 353 6 23 8 23 88 17 45 -4 138 -13 207 -21z
m-454 -46 c-4 -18 -20 -122 -36 -232 -16 -109 -31 -200 -33 -202 -9 -9 -108
101 -129 145 -19 38 -23 62 -23 138 0 84 2 94 25 119 35 38 97 64 154 64 l49
0 -7 -32z m-108 -567 c25 -14 0 -110 -36 -135 -15 -11 -42 -31 -59 -44 l-33
-24 0 151 0 152 56 -46 c31 -25 63 -49 72 -54z m3518 48 c91 -44 125 -115 87
-181 -18 -29 -19 -30 -83 -26 -166 12 -262 117 -181 199 25 25 37 29 82 29 33
0 69 -8 95 -21z"/>
<path d="M1984 4114 c-75 -48 -123 -144 -145 -287 -26 -164 12 -286 103 -333
60 -31 102 -5 152 95 55 109 77 193 78 301 0 118 -14 174 -57 217 -41 41 -76
43 -131 7z"/>
<path d="M3632 4003 c-48 -23 -97 -103 -134 -213 -41 -125 -43 -215 -8 -280
34 -60 95 -101 159 -108 49 -4 53 -3 85 32 52 54 78 133 84 253 12 248 -64
376 -186 316z"/>
<path d="M2487 3574 c-154 -28 -263 -105 -307 -220 -33 -83 -34 -228 -3 -296
67 -148 242 -237 522 -269 162 -19 365 12 485 73 62 31 141 113 167 171 32 71
32 197 0 279 -62 159 -214 240 -506 268 -144 13 -262 11 -358 -6z m489 -153
c49 -10 108 -28 130 -39 125 -64 171 -224 94 -330 -33 -45 -101 -82 -200 -109
-97 -26 -308 -23 -421 5 -220 54 -301 133 -286 278 12 118 80 185 217 214 71
15 361 3 466 -19z"/>
<path d="M2514 3305 c-26 -26 -26 -30 -20 -103 12 -128 42 -171 113 -157 47 9
54 34 42 142 -11 102 -30 136 -77 141 -24 2 -39 -4 -58 -23z"/>
<path d="M2926 3298 c-20 -31 -46 -166 -39 -201 6 -32 46 -67 78 -67 35 0 57
35 71 112 19 109 18 155 -5 168 -36 18 -89 12 -105 -12z"/>
</g>
</svg>
